<svg width="835" height="429" viewBox="0 0 835 429" fill="none" xmlns="http://www.w3.org/2000/svg">
<mask id="path-1-outside-1_235_46" maskUnits="userSpaceOnUse" x="0" y="301.023" width="835" height="128" fill="black">
<rect fill="white" y="301.023" width="835" height="128"/>
<path d="M2 423.689V305.389H25.491C37.659 305.389 47.123 307.924 53.883 312.994C60.643 318.064 64.023 325.106 64.023 334.119C64.023 340.767 62.0513 346.456 58.108 351.188C54.1647 355.808 48.644 358.962 41.546 360.652V361.666C51.2353 362.906 58.784 366.286 64.192 371.806C69.7127 377.214 72.473 384.087 72.473 392.424C72.473 402.226 68.6987 409.888 61.15 415.408C53.6013 420.929 43.0107 423.689 29.378 423.689H2ZM25.66 309.445H13.492V360.145H25.491C43.2923 360.145 52.193 351.695 52.193 334.795C52.193 317.895 43.3487 309.445 25.66 309.445ZM29.378 364.201H13.492V419.633H29.378C49.996 419.633 60.305 410.395 60.305 391.917C60.305 373.44 49.996 364.201 29.378 364.201Z"/>
<path d="M179.695 423.689V364.539V305.389H195.695V423.689H179.695Z"/>
<path d="M229.347 419.971L230.361 409.831H231.375C235.769 413.662 240.727 416.648 246.247 418.788C251.768 420.929 257.232 421.999 262.64 421.999C270.302 421.999 276.498 419.915 281.23 415.746C285.962 411.465 288.328 405.775 288.328 398.677C288.328 394.734 287.427 391.072 285.624 387.692C283.934 384.312 281.061 380.876 277.005 377.383C273.062 373.891 267.598 370.116 260.612 366.06C255.768 363.244 251.148 360.314 246.754 357.272C242.36 354.118 238.755 350.512 235.938 346.456C233.122 342.288 231.713 337.33 231.713 331.584C231.713 323.022 234.812 316.149 241.008 310.966C247.205 305.671 255.373 303.023 265.513 303.023C270.02 303.023 274.865 303.53 280.047 304.544C285.23 305.446 289.23 306.629 292.046 308.093L291.201 317.557H290.187C283.765 310.572 275.541 307.079 265.513 307.079C258.303 307.079 252.5 308.938 248.106 312.656C243.712 316.262 241.515 321.163 241.515 327.359C241.515 331.979 242.698 335.978 245.064 339.358C247.543 342.626 250.698 345.611 254.528 348.315C258.359 350.907 262.471 353.442 266.865 355.92C271.935 358.85 276.836 361.948 281.568 365.215C286.413 368.483 290.356 372.426 293.398 377.045C296.553 381.552 298.13 387.242 298.13 394.114C298.13 400.424 296.666 406.001 293.736 410.845C290.807 415.577 286.638 419.295 281.23 421.999C275.935 424.703 269.738 426.055 262.64 426.055C258.134 426.055 252.838 425.492 246.754 424.365C240.67 423.239 234.868 421.774 229.347 419.971Z"/>
<path d="M321.109 419.971L322.123 409.831H323.137C327.531 413.662 332.488 416.648 338.009 418.788C343.53 420.929 348.994 421.999 354.402 421.999C362.063 421.999 368.26 419.915 372.992 415.746C377.724 411.465 380.09 405.775 380.09 398.677C380.09 394.734 379.189 391.072 377.386 387.692C375.696 384.312 372.823 380.876 368.767 377.383C364.824 373.891 359.359 370.116 352.374 366.06C347.529 363.244 342.91 360.314 338.516 357.272C334.122 354.118 330.517 350.512 327.7 346.456C324.883 342.288 323.475 337.33 323.475 331.584C323.475 323.022 326.573 316.149 332.77 310.966C338.967 305.671 347.135 303.023 357.275 303.023C361.782 303.023 366.626 303.53 371.809 304.544C376.992 305.446 380.991 306.629 383.808 308.093L382.963 317.557H381.949C375.527 310.572 367.302 307.079 357.275 307.079C350.064 307.079 344.262 308.938 339.868 312.656C335.474 316.262 333.277 321.163 333.277 327.359C333.277 331.979 334.46 335.978 336.826 339.358C339.305 342.626 342.459 345.611 346.29 348.315C350.121 350.907 354.233 353.442 358.627 355.92C363.697 358.85 368.598 361.948 373.33 365.215C378.175 368.483 382.118 372.426 385.16 377.045C388.315 381.552 389.892 387.242 389.892 394.114C389.892 400.424 388.427 406.001 385.498 410.845C382.569 415.577 378.4 419.295 372.992 421.999C367.697 424.703 361.5 426.055 354.402 426.055C349.895 426.055 344.6 425.492 338.516 424.365C332.432 423.239 326.63 421.774 321.109 419.971Z"/>
<path d="M406.618 305.389H418.955L460.36 408.817H461.374L488.414 341.893L473.711 305.389H486.048L527.284 408.479H528.298L562.436 305.389H574.773L526.101 426.055H522.383L490.78 347.47L459.008 426.055H455.29L406.618 305.389Z"/>
<path d="M601.092 423.689V305.389H652.637V313.67L623.062 309.783C617.879 309.107 614.386 308.769 612.584 308.769V360.314C614.048 360.314 617.541 360.145 623.062 359.807L650.778 358.117V365.891L623.062 364.201C617.541 363.863 614.048 363.694 612.584 363.694V420.309C614.612 420.309 618.161 419.971 623.231 419.295L653.144 415.408V423.689H601.092Z"/>
<path d="M688.562 305.389H703.365V420.309C706.123 420.309 710.476 419.971 716.427 419.295L752.562 415.07V423.689H688.562V305.389Z"/>
<path d="M769 305.065H783.803V419.985C786.56 419.985 790.914 419.647 796.864 418.971L833 414.746V423.365H769V305.065Z"/>
<path d="M96.1647 305.389H110.967V420.309C113.725 420.309 118.079 419.971 124.029 419.295L160.165 415.07V423.689H96.1647V305.389Z"/>
</mask>
<path d="M2 423.689V305.389H25.491C37.659 305.389 47.123 307.924 53.883 312.994C60.643 318.064 64.023 325.106 64.023 334.119C64.023 340.767 62.0513 346.456 58.108 351.188C54.1647 355.808 48.644 358.962 41.546 360.652V361.666C51.2353 362.906 58.784 366.286 64.192 371.806C69.7127 377.214 72.473 384.087 72.473 392.424C72.473 402.226 68.6987 409.888 61.15 415.408C53.6013 420.929 43.0107 423.689 29.378 423.689H2ZM25.66 309.445H13.492V360.145H25.491C43.2923 360.145 52.193 351.695 52.193 334.795C52.193 317.895 43.3487 309.445 25.66 309.445ZM29.378 364.201H13.492V419.633H29.378C49.996 419.633 60.305 410.395 60.305 391.917C60.305 373.44 49.996 364.201 29.378 364.201Z" fill="#1F4D4A"/>
<path d="M179.695 423.689V364.539V305.389H195.695V423.689H179.695Z" fill="#1F4D4A"/>
<path d="M229.347 419.971L230.361 409.831H231.375C235.769 413.662 240.727 416.648 246.247 418.788C251.768 420.929 257.232 421.999 262.64 421.999C270.302 421.999 276.498 419.915 281.23 415.746C285.962 411.465 288.328 405.775 288.328 398.677C288.328 394.734 287.427 391.072 285.624 387.692C283.934 384.312 281.061 380.876 277.005 377.383C273.062 373.891 267.598 370.116 260.612 366.06C255.768 363.244 251.148 360.314 246.754 357.272C242.36 354.118 238.755 350.512 235.938 346.456C233.122 342.288 231.713 337.33 231.713 331.584C231.713 323.022 234.812 316.149 241.008 310.966C247.205 305.671 255.373 303.023 265.513 303.023C270.02 303.023 274.865 303.53 280.047 304.544C285.23 305.446 289.23 306.629 292.046 308.093L291.201 317.557H290.187C283.765 310.572 275.541 307.079 265.513 307.079C258.303 307.079 252.5 308.938 248.106 312.656C243.712 316.262 241.515 321.163 241.515 327.359C241.515 331.979 242.698 335.978 245.064 339.358C247.543 342.626 250.698 345.611 254.528 348.315C258.359 350.907 262.471 353.442 266.865 355.92C271.935 358.85 276.836 361.948 281.568 365.215C286.413 368.483 290.356 372.426 293.398 377.045C296.553 381.552 298.13 387.242 298.13 394.114C298.13 400.424 296.666 406.001 293.736 410.845C290.807 415.577 286.638 419.295 281.23 421.999C275.935 424.703 269.738 426.055 262.64 426.055C258.134 426.055 252.838 425.492 246.754 424.365C240.67 423.239 234.868 421.774 229.347 419.971Z" fill="#1F4D4A"/>
<path d="M321.109 419.971L322.123 409.831H323.137C327.531 413.662 332.488 416.648 338.009 418.788C343.53 420.929 348.994 421.999 354.402 421.999C362.063 421.999 368.26 419.915 372.992 415.746C377.724 411.465 380.09 405.775 380.09 398.677C380.09 394.734 379.189 391.072 377.386 387.692C375.696 384.312 372.823 380.876 368.767 377.383C364.824 373.891 359.359 370.116 352.374 366.06C347.529 363.244 342.91 360.314 338.516 357.272C334.122 354.118 330.517 350.512 327.7 346.456C324.883 342.288 323.475 337.33 323.475 331.584C323.475 323.022 326.573 316.149 332.77 310.966C338.967 305.671 347.135 303.023 357.275 303.023C361.782 303.023 366.626 303.53 371.809 304.544C376.992 305.446 380.991 306.629 383.808 308.093L382.963 317.557H381.949C375.527 310.572 367.302 307.079 357.275 307.079C350.064 307.079 344.262 308.938 339.868 312.656C335.474 316.262 333.277 321.163 333.277 327.359C333.277 331.979 334.46 335.978 336.826 339.358C339.305 342.626 342.459 345.611 346.29 348.315C350.121 350.907 354.233 353.442 358.627 355.92C363.697 358.85 368.598 361.948 373.33 365.215C378.175 368.483 382.118 372.426 385.16 377.045C388.315 381.552 389.892 387.242 389.892 394.114C389.892 400.424 388.427 406.001 385.498 410.845C382.569 415.577 378.4 419.295 372.992 421.999C367.697 424.703 361.5 426.055 354.402 426.055C349.895 426.055 344.6 425.492 338.516 424.365C332.432 423.239 326.63 421.774 321.109 419.971Z" fill="#1F4D4A"/>
<path d="M406.618 305.389H418.955L460.36 408.817H461.374L488.414 341.893L473.711 305.389H486.048L527.284 408.479H528.298L562.436 305.389H574.773L526.101 426.055H522.383L490.78 347.47L459.008 426.055H455.29L406.618 305.389Z" fill="#1F4D4A"/>
<path d="M601.092 423.689V305.389H652.637V313.67L623.062 309.783C617.879 309.107 614.386 308.769 612.584 308.769V360.314C614.048 360.314 617.541 360.145 623.062 359.807L650.778 358.117V365.891L623.062 364.201C617.541 363.863 614.048 363.694 612.584 363.694V420.309C614.612 420.309 618.161 419.971 623.231 419.295L653.144 415.408V423.689H601.092Z" fill="#1F4D4A"/>
<path d="M688.562 305.389H703.365V420.309C706.123 420.309 710.476 419.971 716.427 419.295L752.562 415.07V423.689H688.562V305.389Z" fill="#1F4D4A"/>
<path d="M769 305.065H783.803V419.985C786.56 419.985 790.914 419.647 796.864 418.971L833 414.746V423.365H769V305.065Z" fill="#1F4D4A"/>
<path d="M96.1647 305.389H110.967V420.309C113.725 420.309 118.079 419.971 124.029 419.295L160.165 415.07V423.689H96.1647V305.389Z" fill="#1F4D4A"/>
<path d="M2 423.689V305.389H25.491C37.659 305.389 47.123 307.924 53.883 312.994C60.643 318.064 64.023 325.106 64.023 334.119C64.023 340.767 62.0513 346.456 58.108 351.188C54.1647 355.808 48.644 358.962 41.546 360.652V361.666C51.2353 362.906 58.784 366.286 64.192 371.806C69.7127 377.214 72.473 384.087 72.473 392.424C72.473 402.226 68.6987 409.888 61.15 415.408C53.6013 420.929 43.0107 423.689 29.378 423.689H2ZM25.66 309.445H13.492V360.145H25.491C43.2923 360.145 52.193 351.695 52.193 334.795C52.193 317.895 43.3487 309.445 25.66 309.445ZM29.378 364.201H13.492V419.633H29.378C49.996 419.633 60.305 410.395 60.305 391.917C60.305 373.44 49.996 364.201 29.378 364.201Z" stroke="#1F4D4A" stroke-width="4" mask="url(#path-1-outside-1_235_46)"/>
<path d="M179.695 423.689V364.539V305.389H195.695V423.689H179.695Z" stroke="#1F4D4A" stroke-width="4" mask="url(#path-1-outside-1_235_46)"/>
<path d="M229.347 419.971L230.361 409.831H231.375C235.769 413.662 240.727 416.648 246.247 418.788C251.768 420.929 257.232 421.999 262.64 421.999C270.302 421.999 276.498 419.915 281.23 415.746C285.962 411.465 288.328 405.775 288.328 398.677C288.328 394.734 287.427 391.072 285.624 387.692C283.934 384.312 281.061 380.876 277.005 377.383C273.062 373.891 267.598 370.116 260.612 366.06C255.768 363.244 251.148 360.314 246.754 357.272C242.36 354.118 238.755 350.512 235.938 346.456C233.122 342.288 231.713 337.33 231.713 331.584C231.713 323.022 234.812 316.149 241.008 310.966C247.205 305.671 255.373 303.023 265.513 303.023C270.02 303.023 274.865 303.53 280.047 304.544C285.23 305.446 289.23 306.629 292.046 308.093L291.201 317.557H290.187C283.765 310.572 275.541 307.079 265.513 307.079C258.303 307.079 252.5 308.938 248.106 312.656C243.712 316.262 241.515 321.163 241.515 327.359C241.515 331.979 242.698 335.978 245.064 339.358C247.543 342.626 250.698 345.611 254.528 348.315C258.359 350.907 262.471 353.442 266.865 355.92C271.935 358.85 276.836 361.948 281.568 365.215C286.413 368.483 290.356 372.426 293.398 377.045C296.553 381.552 298.13 387.242 298.13 394.114C298.13 400.424 296.666 406.001 293.736 410.845C290.807 415.577 286.638 419.295 281.23 421.999C275.935 424.703 269.738 426.055 262.64 426.055C258.134 426.055 252.838 425.492 246.754 424.365C240.67 423.239 234.868 421.774 229.347 419.971Z" stroke="#1F4D4A" stroke-width="4" mask="url(#path-1-outside-1_235_46)"/>
<path d="M321.109 419.971L322.123 409.831H323.137C327.531 413.662 332.488 416.648 338.009 418.788C343.53 420.929 348.994 421.999 354.402 421.999C362.063 421.999 368.26 419.915 372.992 415.746C377.724 411.465 380.09 405.775 380.09 398.677C380.09 394.734 379.189 391.072 377.386 387.692C375.696 384.312 372.823 380.876 368.767 377.383C364.824 373.891 359.359 370.116 352.374 366.06C347.529 363.244 342.91 360.314 338.516 357.272C334.122 354.118 330.517 350.512 327.7 346.456C324.883 342.288 323.475 337.33 323.475 331.584C323.475 323.022 326.573 316.149 332.77 310.966C338.967 305.671 347.135 303.023 357.275 303.023C361.782 303.023 366.626 303.53 371.809 304.544C376.992 305.446 380.991 306.629 383.808 308.093L382.963 317.557H381.949C375.527 310.572 367.302 307.079 357.275 307.079C350.064 307.079 344.262 308.938 339.868 312.656C335.474 316.262 333.277 321.163 333.277 327.359C333.277 331.979 334.46 335.978 336.826 339.358C339.305 342.626 342.459 345.611 346.29 348.315C350.121 350.907 354.233 353.442 358.627 355.92C363.697 358.85 368.598 361.948 373.33 365.215C378.175 368.483 382.118 372.426 385.16 377.045C388.315 381.552 389.892 387.242 389.892 394.114C389.892 400.424 388.427 406.001 385.498 410.845C382.569 415.577 378.4 419.295 372.992 421.999C367.697 424.703 361.5 426.055 354.402 426.055C349.895 426.055 344.6 425.492 338.516 424.365C332.432 423.239 326.63 421.774 321.109 419.971Z" stroke="#1F4D4A" stroke-width="4" mask="url(#path-1-outside-1_235_46)"/>
<path d="M406.618 305.389H418.955L460.36 408.817H461.374L488.414 341.893L473.711 305.389H486.048L527.284 408.479H528.298L562.436 305.389H574.773L526.101 426.055H522.383L490.78 347.47L459.008 426.055H455.29L406.618 305.389Z" stroke="#1F4D4A" stroke-width="4" mask="url(#path-1-outside-1_235_46)"/>
<path d="M601.092 423.689V305.389H652.637V313.67L623.062 309.783C617.879 309.107 614.386 308.769 612.584 308.769V360.314C614.048 360.314 617.541 360.145 623.062 359.807L650.778 358.117V365.891L623.062 364.201C617.541 363.863 614.048 363.694 612.584 363.694V420.309C614.612 420.309 618.161 419.971 623.231 419.295L653.144 415.408V423.689H601.092Z" stroke="#1F4D4A" stroke-width="4" mask="url(#path-1-outside-1_235_46)"/>
<path d="M688.562 305.389H703.365V420.309C706.123 420.309 710.476 419.971 716.427 419.295L752.562 415.07V423.689H688.562V305.389Z" stroke="#1F4D4A" stroke-width="4" mask="url(#path-1-outside-1_235_46)"/>
<path d="M769 305.065H783.803V419.985C786.56 419.985 790.914 419.647 796.864 418.971L833 414.746V423.365H769V305.065Z" stroke="#1F4D4A" stroke-width="4" mask="url(#path-1-outside-1_235_46)"/>
<path d="M96.1647 305.389H110.967V420.309C113.725 420.309 118.079 419.971 124.029 419.295L160.165 415.07V423.689H96.1647V305.389Z" stroke="#1F4D4A" stroke-width="4" mask="url(#path-1-outside-1_235_46)"/>
<path d="M408.798 173.789C421.593 201.932 416.57 233.097 408.793 249.214L408.388 250.055L407.912 249.25C400.452 236.624 398.758 220.88 399.762 206.765C400.765 192.652 404.472 180.079 407.904 173.758L408.383 172.875L408.798 173.789Z" fill="#6B897A"/>
<path d="M232 74.5026C280.8 73.7026 321.667 91.5026 336 100.503C320.8 195.305 361.667 247.668 384 262C278.999 253.5 231.999 125.5 232 74.5026Z" fill="url(#paint0_linear_235_46)"/>
<path d="M586.999 75.5261C538.199 74.7261 497.332 92.5261 482.999 101.526C498.199 196.328 457.332 248.692 434.999 263.023C540 254.523 587 126.523 586.999 75.5261Z" fill="url(#paint1_linear_235_46)"/>
<path d="M402.499 164C388.099 138.8 360.832 116.5 348.999 108.5C332.599 184.9 371.499 234.333 392.999 249.5C379.799 216.3 393.832 178.667 402.499 164Z" fill="url(#paint2_linear_235_46)"/>
<path d="M416.999 165C431.399 139.8 458.666 117.5 470.499 109.5C486.899 185.9 447.999 235.333 426.499 250.5C439.699 217.3 425.666 179.667 416.999 165Z" fill="url(#paint3_linear_235_46)"/>
<path d="M408 0C396 10.5 367.6 44.1 350 94.5C363.5 102.333 394 124.6 408 151C411.833 142.167 428.7 118.5 465.5 94.5C458.833 74.1667 438 26.8 408 0Z" fill="url(#paint4_linear_235_46)"/>
<defs>
<linearGradient id="paint0_linear_235_46" x1="308" y1="74.4766" x2="308" y2="262" gradientUnits="userSpaceOnUse">
<stop stop-color="#1F4D4A"/>
<stop offset="0.5" stop-color="#6C8B7B"/>
<stop offset="1" stop-color="#668678"/>
</linearGradient>
<linearGradient id="paint1_linear_235_46" x1="510.999" y1="75.5" x2="510.999" y2="263.023" gradientUnits="userSpaceOnUse">
<stop stop-color="#1F4D4A"/>
<stop offset="0.5" stop-color="#6C8B7B"/>
<stop offset="1" stop-color="#668678"/>
</linearGradient>
<linearGradient id="paint2_linear_235_46" x1="373.784" y1="108.5" x2="373.784" y2="249.5" gradientUnits="userSpaceOnUse">
<stop stop-color="#AA8C4A"/>
<stop offset="1" stop-color="#F1D187"/>
</linearGradient>
<linearGradient id="paint3_linear_235_46" x1="445.714" y1="109.5" x2="445.714" y2="250.5" gradientUnits="userSpaceOnUse">
<stop stop-color="#AA8C4A"/>
<stop offset="1" stop-color="#F1D187"/>
</linearGradient>
<linearGradient id="paint4_linear_235_46" x1="407.75" y1="0" x2="407.75" y2="151" gradientUnits="userSpaceOnUse">
<stop stop-color="#AA8C4A"/>
<stop offset="1" stop-color="#F1D187"/>
</linearGradient>
</defs>
</svg>
